<svg width="113" height="123" viewBox="0 0 113 123" fill="none" xmlns="http://www.w3.org/2000/svg">
<path d="M93.493 0C94.3947 0.298454 95.3286 0.532724 96.1983 0.908199C101.458 3.18351 103.891 9.26491 101.68 14.5569C101.513 14.9612 101.33 15.3559 101.07 15.9432C101.58 15.9721 101.988 16.0042 102.398 16.0138C107.79 16.1647 111.667 19.836 112.093 25.2017C112.125 25.5997 112.138 26.0008 112.138 26.402C112.141 46.6166 112.145 66.8312 112.138 87.0459C112.135 91.8565 109.719 95.5438 105.556 96.8692C104.25 97.2864 102.809 97.4372 101.429 97.4437C89.6997 97.4886 77.9734 97.4693 66.2438 97.4693C65.8106 97.4693 65.3774 97.4693 64.758 97.4693C65.2265 99.4526 65.663 101.298 66.0962 103.146C66.5166 104.937 66.9563 106.721 67.3478 108.519C67.489 109.17 67.7714 109.446 68.4806 109.424C69.9986 109.369 71.5229 109.404 73.0441 109.408C78.0055 109.42 80.9354 112.331 80.9996 117.309C81.0028 117.546 80.9996 117.783 80.9996 118.191C82.7968 118.191 84.5426 118.191 86.2851 118.191C87.0842 118.191 87.8897 118.156 88.6856 118.21C90.0078 118.3 90.9256 119.289 90.9385 120.563C90.9513 121.84 90.0527 122.841 88.7466 122.976C88.3904 123.014 88.0277 122.995 87.6651 122.995C66.8889 122.995 46.1159 122.995 25.3397 122.995C25.0188 122.995 24.6979 123.008 24.3802 122.986C22.9938 122.883 22.0471 121.894 22.0599 120.569C22.0696 119.247 23.0227 118.239 24.4251 118.207C26.5464 118.159 28.6676 118.191 30.7889 118.191C31.1419 118.191 31.4949 118.191 31.896 118.191C31.9955 117.135 32.0052 116.137 32.1977 115.178C32.8299 112.052 35.3331 109.751 38.5102 109.497C40.4998 109.34 42.5088 109.459 44.5081 109.375C44.8707 109.359 45.4612 109.035 45.535 108.746C46.4689 105.069 47.3258 101.375 48.2564 97.4693C47.6756 97.4693 47.2199 97.4693 46.7674 97.4693C34.9191 97.4693 23.0708 97.479 11.2225 97.4629C6.08786 97.4565 2.23364 94.5682 1.14573 89.9149C0.937137 89.0292 0.872953 88.0921 0.872953 87.1775C0.856907 66.8826 0.853698 46.5877 0.863326 26.2961C0.866535 21.1325 3.83823 17.2462 8.56535 16.2321C9.53131 16.0267 10.5518 16.0235 11.5499 16.0235C32.4833 16.0138 53.42 16.0106 74.3534 16.0331C75.2937 16.0331 75.8746 15.7796 76.3945 14.9676C78.0985 12.3072 79.9887 9.76234 81.619 7.0602C83.6985 3.61354 86.2563 0.872898 90.3704 0C91.4102 0 92.45 0 93.493 0ZM107.334 71.6643C107.334 71.0706 107.334 70.6373 107.334 70.2041C107.334 55.6729 107.334 41.1385 107.331 26.6073C107.331 26.1677 107.331 25.7248 107.283 25.2884C106.997 22.6793 105.113 20.911 102.488 20.8308C101.128 20.7891 99.7637 20.8822 98.4062 20.7987C97.4595 20.741 96.8754 21.1036 96.2946 21.816C89.6419 29.9738 82.9765 38.1219 76.2565 46.2251C75.4317 47.2199 75.1076 48.0992 75.5184 49.3348C75.7526 50.0408 75.7751 50.8303 75.8232 51.5876C76.234 57.9322 71.8792 63.2883 65.6181 63.9237C63.3652 64.1516 61.0674 63.9526 58.7889 63.9205C55.7338 63.8756 52.9482 64.511 50.5895 66.658C49.1357 67.9834 47.1493 67.3383 46.6422 65.4449C45.4676 61.0579 44.7456 56.6228 45.1596 52.0433C45.933 43.5197 51.7737 37.8716 60.3293 37.5025C61.0482 37.4704 61.475 37.2458 61.873 36.6457C65.1399 31.7099 68.4453 26.7967 71.7347 21.8738C71.9241 21.5914 72.0781 21.2833 72.3381 20.8276C71.7733 20.8276 71.3817 20.8276 70.9902 20.8276C51.0933 20.8276 31.1964 20.8276 11.2996 20.8276C7.50953 20.8276 5.66104 22.6986 5.66104 26.5367C5.65783 41.1096 5.66104 55.6825 5.66104 70.2555C5.66104 70.6855 5.66104 71.1155 5.66104 71.6739C6.28041 71.6739 6.75537 71.6707 7.22712 71.6739C9.02747 71.6835 10.8342 71.629 12.6282 71.7253C14.0498 71.8023 14.9676 72.8677 14.9291 74.161C14.8906 75.4704 13.9311 76.3914 12.4998 76.4652C11.9799 76.4941 11.46 76.4781 10.9401 76.4781C9.22964 76.4781 7.52236 76.4781 5.74769 76.4781C5.71239 76.9723 5.66425 77.3221 5.66425 77.6719C5.65783 80.8361 5.65141 83.9972 5.66425 87.1614C5.6803 90.6915 7.64431 92.6684 11.1808 92.6716C41.408 92.678 71.6321 92.678 101.859 92.6716C105.325 92.6716 107.305 90.6851 107.328 87.2352C107.347 84.1929 107.334 81.1506 107.331 78.1083C107.331 76.4845 107.331 76.4845 105.726 76.4845C81.465 76.4845 57.2036 76.4845 32.9454 76.4813C32.4256 76.4813 31.8993 76.4973 31.3858 76.4299C30.2529 76.2823 29.4314 75.3645 29.364 74.2381C29.2966 73.1213 30.0091 72.0783 31.1194 71.828C31.7356 71.69 32.3903 71.6835 33.0257 71.6835C57.2068 71.6771 81.3879 71.6771 105.569 71.6771C106.086 71.6643 106.599 71.6643 107.334 71.6643ZM80.2744 33.7959C81.0927 32.7979 81.8276 31.9089 82.5593 31.0168C87.0778 25.513 91.5835 20.0028 96.1148 14.5087C97.514 12.8111 98.0757 10.9369 97.4081 8.81563C96.6925 6.53711 95.0622 5.18925 92.7324 4.87154C90.3897 4.55062 88.4995 5.4845 87.1773 7.45493C82.585 14.2937 78.0087 21.1421 73.4324 27.9873C73.3297 28.1413 73.2687 28.321 73.1692 28.5232C75.5312 30.2754 77.8386 31.9859 80.2744 33.7959ZM50.5093 60.8333C53.9495 59.142 57.4764 58.9848 61.0642 59.203C62.1393 59.2672 63.224 59.3186 64.2991 59.2576C67.6848 59.0682 70.1719 57.2583 70.7624 54.232C71.0512 52.7558 70.8009 51.1512 70.6404 49.6236C70.5859 49.1166 70.1334 48.5421 69.7001 48.2084C67.2932 46.3567 64.8414 44.5627 62.3896 42.7688C62.0815 42.5442 61.7029 42.3259 61.337 42.2906C56.5842 41.8189 51.9149 44.9382 50.5446 49.5241C49.4374 53.2243 49.7711 56.9438 50.5093 60.8333ZM36.8671 118.111C50.0086 118.111 63.0668 118.111 76.1153 118.111C76.3784 115.129 75.5601 114.212 72.7071 114.208C61.9082 114.208 51.1094 114.208 40.3105 114.208C37.4319 114.208 36.6553 115.068 36.8671 118.111ZM50.3873 109.324C54.5143 109.324 58.4873 109.324 62.6143 109.324C61.6579 105.313 60.7305 101.413 59.8094 97.5399C57.5213 97.5399 55.3744 97.5399 53.1857 97.5399C52.2518 101.468 51.3308 105.338 50.3873 109.324ZM71.9979 43.8888C73.7597 41.7419 75.4702 39.6591 77.2256 37.5186C74.9086 35.8017 72.7103 34.1714 70.4286 32.4801C68.8625 34.8196 67.3767 37.034 65.8427 39.3253C67.8966 40.8465 69.9119 42.342 71.9979 43.8888Z" fill="#2087C5"/>
<path d="M22.1111 76.4523C20.7922 76.4331 19.7556 75.3837 19.7588 74.0743C19.762 72.7874 20.8403 71.7124 22.1368 71.6995C23.4782 71.6899 24.5854 72.8227 24.5469 74.161C24.5052 75.4671 23.4397 76.4716 22.1111 76.4523Z" fill="#2087C5"/>
</svg>
