<svg width="292" height="74" viewBox="0 0 292 74" fill="none" xmlns="http://www.w3.org/2000/svg">
    <g clip-path="url(#clip0_110_1898)">
    <path d="M90.8613 50.2047H87.4348V55.3892C87.4348 56.1295 87.2585 56.6919 86.9058 57.0766C86.5532 57.4584 86.1095 57.6507 85.5717 57.6507C85.0104 57.6507 84.5549 57.4613 84.2111 57.0824C83.8672 56.7036 83.6938 56.1469 83.6938 55.4154V41.3015C83.6938 40.4855 83.8819 39.9026 84.261 39.5529C84.6401 39.2032 85.2396 39.0283 86.0624 39.0283H90.8613C92.2807 39.0283 93.371 39.1361 94.135 39.3518C94.8903 39.5587 95.5426 39.9055 96.0922 40.3893C96.6417 40.8731 97.059 41.4647 97.3441 42.1641C97.6291 42.8635 97.7731 43.6504 97.7731 44.5247C97.7731 46.3899 97.1942 47.8033 96.0363 48.765C94.8785 49.7238 93.1535 50.2047 90.8613 50.2047ZM89.9562 41.8115H87.4377V47.4069H89.9562C90.8378 47.4069 91.5754 47.3166 92.1661 47.133C92.7568 46.9494 93.2093 46.6492 93.5208 46.2354C93.8323 45.8186 93.9881 45.2737 93.9881 44.6005C93.9881 43.7932 93.7501 43.1346 93.271 42.6275C92.7303 42.0796 91.6254 41.8115 89.9562 41.8115Z" fill="white"/>
    <path d="M103.245 49.7675V40.9634C103.245 40.2144 103.416 39.652 103.756 39.276C104.097 38.9001 104.544 38.7136 105.096 38.7136C105.675 38.7136 106.137 38.9001 106.475 39.276C106.813 39.652 106.986 40.2115 106.986 40.9634V49.9686C106.986 50.9915 107.101 51.8483 107.333 52.5361C107.565 53.2239 107.973 53.7572 108.561 54.1361C109.149 54.5149 109.972 54.7044 111.03 54.7044C112.49 54.7044 113.525 54.3197 114.127 53.5503C114.73 52.7809 115.035 51.6123 115.035 50.0473V40.9663C115.035 40.2086 115.203 39.6432 115.538 39.2731C115.873 38.903 116.322 38.7165 116.887 38.7165C117.448 38.7165 117.903 38.903 118.253 39.2731C118.603 39.6432 118.776 40.2086 118.776 40.9663V49.7704C118.776 51.2043 118.635 52.3962 118.353 53.355C118.071 54.3138 117.542 55.1532 116.76 55.8788C116.087 56.4966 115.308 56.9454 114.418 57.2281C113.528 57.5108 112.487 57.6536 111.294 57.6536C109.875 57.6536 108.652 57.5021 107.63 57.199C106.604 56.8959 105.769 56.4238 105.123 55.7885C104.476 55.1502 104.003 54.3342 103.701 53.3405C103.398 52.3379 103.245 51.1489 103.245 49.7675Z" fill="white"/>
    <path d="M133.023 57.336H127.38C126.566 57.336 125.985 57.1553 125.635 56.794C125.285 56.4326 125.112 55.8556 125.112 55.0629V41.2986C125.112 40.4913 125.291 39.9114 125.647 39.5559C126.002 39.2032 126.581 39.0255 127.378 39.0255H133.361C134.242 39.0255 135.006 39.0808 135.653 39.1887C136.299 39.2965 136.878 39.5063 137.39 39.8123C137.828 40.0717 138.212 40.3981 138.548 40.7915C138.883 41.1879 139.138 41.625 139.315 42.103C139.491 42.5809 139.579 43.088 139.579 43.6213C139.579 45.4544 138.656 46.795 136.808 47.643C139.235 48.4095 140.449 49.8987 140.449 52.1136C140.449 53.1365 140.184 54.0603 139.655 54.8793C139.126 55.7011 138.412 56.3044 137.513 56.6978C136.952 56.9309 136.305 57.0941 135.574 57.1903C134.851 57.2865 133.998 57.336 133.023 57.336ZM128.856 41.8115V46.5444H132.282C133.214 46.5444 133.934 46.4569 134.442 46.2821C134.951 46.1072 135.338 45.775 135.606 45.2825C135.815 44.9327 135.92 44.5422 135.92 44.108C135.92 43.1842 135.588 42.5692 134.924 42.2662C134.26 41.9631 133.249 41.8115 131.888 41.8115H128.856ZM132.747 49.2051H128.856V54.5499H132.873C135.4 54.5499 136.664 53.6465 136.664 51.8396C136.664 50.9158 136.338 50.2455 135.682 49.8288C135.027 49.412 134.048 49.2051 132.747 49.2051Z" fill="white"/>
    <path d="M149.676 40.9605V54.2876H157.258C157.864 54.2876 158.328 54.4334 158.651 54.7248C158.975 55.0162 159.136 55.3834 159.136 55.8235C159.136 56.2723 158.977 56.6366 158.657 56.9163C158.337 57.1961 157.873 57.336 157.258 57.336H148.228C147.414 57.336 146.829 57.1582 146.47 56.7998C146.115 56.4413 145.936 55.8643 145.936 55.0629V40.9605C145.936 40.2116 146.106 39.6491 146.447 39.2732C146.788 38.8972 147.234 38.7107 147.787 38.7107C148.348 38.7107 148.804 38.8972 149.153 39.2673C149.503 39.6404 149.676 40.2028 149.676 40.9605Z" fill="white"/>
    <path d="M164.064 55.3863V40.9605C164.064 40.2116 164.237 39.6491 164.581 39.2732C164.925 38.8972 165.369 38.7107 165.915 38.7107C166.477 38.7107 166.932 38.8972 167.282 39.2673C167.632 39.6374 167.805 40.2028 167.805 40.9605V55.3863C167.805 56.1441 167.632 56.7094 167.282 57.0854C166.932 57.4613 166.477 57.6478 165.915 57.6478C165.378 57.6478 164.934 57.4584 164.587 57.0795C164.237 56.7007 164.064 56.1353 164.064 55.3863Z" fill="white"/>
    <path d="M197.107 51.8396C197.107 52.9471 196.819 53.9408 196.243 54.8239C195.667 55.7069 194.827 56.3976 193.719 56.8959C192.611 57.3943 191.297 57.6449 189.778 57.6449C187.956 57.6449 186.454 57.3039 185.27 56.622C184.429 56.1295 183.748 55.4737 183.225 54.6548C182.701 53.8359 182.437 53.0374 182.437 52.2622C182.437 51.8134 182.596 51.4287 182.91 51.1081C183.225 50.7875 183.627 50.6273 184.112 50.6273C184.506 50.6273 184.841 50.7526 185.114 51.0032C185.387 51.2538 185.62 51.624 185.814 52.1136C186.049 52.6964 186.301 53.1831 186.575 53.5736C186.848 53.9641 187.233 54.2876 187.727 54.5412C188.223 54.7947 188.873 54.923 189.678 54.923C190.786 54.923 191.685 54.6665 192.379 54.1536C193.072 53.6407 193.419 53.0024 193.419 52.236C193.419 51.6269 193.231 51.1344 192.858 50.7555C192.484 50.3766 192.002 50.0881 191.409 49.887C190.815 49.6859 190.025 49.4761 189.034 49.2488C187.709 48.9399 186.598 48.5814 185.702 48.1676C184.806 47.7538 184.097 47.1942 183.574 46.4802C183.048 45.7691 182.787 44.8832 182.787 43.8253C182.787 42.8169 183.063 41.9222 183.618 41.1412C184.174 40.3602 184.973 39.7569 186.025 39.3372C187.074 38.9176 188.309 38.7078 189.728 38.7078C190.862 38.7078 191.841 38.8476 192.67 39.1274C193.495 39.4072 194.183 39.7773 194.73 40.2378C195.276 40.6982 195.673 41.1849 195.926 41.692C196.178 42.1991 196.305 42.6945 196.305 43.1783C196.305 43.6184 196.146 44.0176 195.832 44.3703C195.517 44.7229 195.123 44.9007 194.653 44.9007C194.224 44.9007 193.898 44.7957 193.678 44.583C193.457 44.3703 193.213 44.0234 192.955 43.5397C192.62 42.849 192.217 42.3098 191.747 41.9222C191.277 41.5346 190.521 41.3423 189.481 41.3423C188.514 41.3423 187.735 41.5521 187.145 41.9747C186.554 42.3944 186.257 42.9014 186.257 43.4931C186.257 43.8603 186.357 44.175 186.56 44.4431C186.763 44.7112 187.039 44.9385 187.392 45.1309C187.744 45.3232 188.1 45.4719 188.461 45.5797C188.823 45.6875 189.419 45.8449 190.251 46.0547C191.291 46.2966 192.235 46.5618 193.078 46.8532C193.921 47.1447 194.638 47.4973 195.232 47.914C195.823 48.3308 196.287 48.8583 196.616 49.4936C196.942 50.1347 197.107 50.9158 197.107 51.8396Z" fill="white"/>
    <path d="M214.592 42.0855H210.51V55.3864C210.51 56.1528 210.337 56.7211 209.993 57.0912C209.649 57.4613 209.202 57.6479 208.659 57.6479C208.103 57.6479 207.654 57.4613 207.304 57.0854C206.954 56.7094 206.781 56.1441 206.781 55.3864V42.0855H202.699C202.061 42.0855 201.585 41.9456 201.277 41.6658C200.965 41.386 200.81 41.0188 200.81 40.5613C200.81 40.0863 200.971 39.7132 201.294 39.4364C201.618 39.1624 202.085 39.0255 202.699 39.0255H214.589C215.236 39.0255 215.718 39.1683 216.032 39.4509C216.346 39.7336 216.505 40.1037 216.505 40.5613C216.505 41.0188 216.346 41.389 216.026 41.6658C215.709 41.9456 215.23 42.0855 214.592 42.0855Z" fill="white"/>
    <path d="M221.069 49.7675V40.9634C221.069 40.2144 221.239 39.652 221.58 39.276C221.921 38.9001 222.368 38.7136 222.92 38.7136C223.499 38.7136 223.961 38.9001 224.298 39.276C224.636 39.652 224.81 40.2115 224.81 40.9634V49.9686C224.81 50.9915 224.924 51.8483 225.157 52.5361C225.389 53.2239 225.797 53.7572 226.385 54.1361C226.973 54.5149 227.796 54.7044 228.853 54.7044C230.314 54.7044 231.348 54.3197 231.951 53.5503C232.556 52.7809 232.856 51.6123 232.856 50.0473V40.9663C232.856 40.2086 233.023 39.6432 233.358 39.2731C233.693 38.903 234.143 38.7165 234.707 38.7165C235.269 38.7165 235.724 38.903 236.074 39.2731C236.424 39.6432 236.597 40.2086 236.597 40.9663V49.7704C236.597 51.2043 236.456 52.3962 236.174 53.355C235.892 54.3138 235.363 55.1532 234.581 55.8788C233.908 56.4966 233.129 56.9454 232.239 57.2281C231.348 57.5108 230.308 57.6536 229.115 57.6536C227.696 57.6536 226.473 57.5021 225.45 57.199C224.425 56.8959 223.59 56.4238 222.944 55.7885C222.297 55.1531 221.824 54.3342 221.521 53.3405C221.222 52.3379 221.069 51.1489 221.069 49.7675Z" fill="white"/>
    <path d="M245.28 39.0255H250.153C251.419 39.0255 252.507 39.142 253.415 39.3752C254.32 39.6083 255.143 40.0455 255.883 40.6866C257.805 42.3186 258.766 44.7987 258.766 48.1297C258.766 49.2284 258.669 50.2309 258.475 51.1402C258.281 52.0466 257.984 52.8655 257.582 53.5941C257.179 54.3226 256.662 54.9754 256.033 55.5496C255.536 55.9896 254.996 56.3452 254.408 56.6104C253.82 56.8756 253.188 57.065 252.513 57.1728C251.837 57.2806 251.076 57.336 250.226 57.336H245.351C244.672 57.336 244.158 57.234 243.814 57.03C243.47 56.826 243.244 56.5375 243.141 56.1674C243.038 55.7973 242.982 55.3164 242.982 54.7248V41.2986C242.982 40.5001 243.162 39.9201 243.523 39.5617C243.89 39.2032 244.472 39.0255 245.28 39.0255ZM246.726 41.9602V54.3867H249.559C250.179 54.3867 250.667 54.3693 251.02 54.3372C251.372 54.3051 251.737 54.2206 252.116 54.0866C252.495 53.9525 252.821 53.766 253.097 53.5241C254.349 52.475 254.975 50.6681 254.975 48.1035C254.975 46.2966 254.699 44.9444 254.149 44.0439C253.6 43.1434 252.921 42.5722 252.116 42.3274C251.311 42.0826 250.335 41.9602 249.195 41.9602H246.726Z" fill="white"/>
    <path d="M264.529 55.3863V40.9605C264.529 40.2116 264.703 39.6491 265.047 39.2732C265.39 38.8972 265.834 38.7107 266.381 38.7107C266.942 38.7107 267.397 38.8972 267.747 39.2673C268.097 39.6374 268.27 40.2028 268.27 40.9605V55.3863C268.27 56.1441 268.097 56.7094 267.747 57.0854C267.397 57.4613 266.942 57.6478 266.381 57.6478C265.843 57.6478 265.399 57.4584 265.052 57.0795C264.703 56.7007 264.529 56.1353 264.529 55.3863Z" fill="white"/>
    <path d="M282.896 38.7136C284.809 38.7136 286.454 39.0983 287.827 39.8676C289.199 40.637 290.239 41.7328 290.945 43.1521C291.65 44.5713 292.003 46.2383 292.003 48.153C292.003 49.5693 291.809 50.8546 291.424 52.0115C291.039 53.1685 290.457 54.171 289.687 55.022C288.917 55.873 287.965 56.52 286.839 56.9717C285.714 57.4205 284.427 57.6449 282.972 57.6449C281.529 57.6449 280.236 57.4146 279.093 56.9513C277.95 56.4908 276.998 55.838 276.234 54.9958C275.47 54.1565 274.894 53.1423 274.503 51.962C274.112 50.7788 273.918 49.5023 273.918 48.1268C273.918 46.7192 274.121 45.4281 274.529 44.2537C274.938 43.0792 275.525 42.0796 276.298 41.2548C277.071 40.4301 278.012 39.8006 279.119 39.3635C280.227 38.9263 281.485 38.7136 282.896 38.7136ZM288.209 48.1297C288.209 46.7891 287.991 45.6292 287.553 44.6442C287.116 43.6621 286.493 42.9189 285.684 42.4147C284.873 41.9106 283.945 41.6599 282.896 41.6599C282.149 41.6599 281.459 41.7998 280.824 42.0796C280.189 42.3594 279.645 42.7644 279.187 43.2978C278.729 43.8311 278.367 44.5101 278.103 45.3407C277.838 46.1684 277.706 47.1009 277.706 48.1326C277.706 49.173 277.838 50.1143 278.103 50.9566C278.367 51.7988 278.74 52.4953 279.222 53.049C279.704 53.6027 280.26 54.0166 280.886 54.2905C281.512 54.5645 282.196 54.7014 282.946 54.7014C283.904 54.7014 284.782 54.4654 285.585 53.9903C286.387 53.5153 287.025 52.7838 287.498 51.793C287.971 50.8021 288.209 49.5781 288.209 48.1297Z" fill="white"/>
    <path d="M39.834 74C38.1502 74 36.4692 73.388 35.2173 72.1727L1.88966 39.8764C0.681855 38.7049 0.011834 37.137 0.00301788 35.4613C-0.00579819 33.7855 0.646591 32.2089 1.8397 31.0257L16.4773 16.5095C17.453 15.542 19.034 15.542 20.0096 16.5095C20.9853 17.4771 20.9853 19.045 20.0096 20.0125L5.372 34.5287C5.04287 34.8551 4.99585 35.2339 4.99879 35.4321C4.99879 35.6303 5.05169 36.0091 5.38376 36.3326L38.7056 68.6319C39.2757 69.1827 40.2925 69.206 40.889 68.6814L45.7584 64.3886C46.0053 64.1701 46.1493 63.8757 46.164 63.5581C46.1757 63.2404 46.0582 62.9344 45.8289 62.6983L24.9584 41.0684C22.578 38.6029 22.6045 34.6161 25.0142 32.1797L35.2379 21.8515C36.4193 20.6566 38.0032 19.995 39.693 19.9863C39.7018 19.9863 39.7135 19.9863 39.7223 19.9863C41.4003 19.9863 42.9784 20.6333 44.1627 21.8107L54.3365 31.9C56.7991 34.3422 56.7991 38.3173 54.3365 40.7624L47.0456 47.9928C46.0699 48.9603 44.4889 48.9603 43.5133 47.9928C42.5376 47.0252 42.5376 45.4573 43.5133 44.4898L50.8041 37.2594C51.3096 36.7552 51.3096 35.9071 50.8041 35.4059L40.6304 25.3166C40.3013 24.9902 39.9075 24.9552 39.7135 24.9435C39.5137 24.9435 39.1258 24.996 38.8025 25.3253L28.5788 35.6536C28.0558 36.1811 28.0499 37.1137 28.5671 37.647L49.4377 59.2769C50.6131 60.4951 51.2244 62.0892 51.1568 63.7621C51.0892 65.4349 50.3516 66.9736 49.0791 68.0956L44.2097 72.3884C42.9814 73.4638 41.4062 74 39.834 74Z" fill="url(#paint0_linear_110_1898)"/>
    <path d="M56.1496 59.7899C55.5442 59.7899 54.9389 59.5742 54.4569 59.1341C53.4431 58.2074 53.3755 56.6395 54.31 55.6341L67.8015 41.1033C70.3817 38.326 70.3023 33.7039 67.6311 31.0111L43.7983 7.00015C41.1241 4.30442 36.7249 4.26071 33.9948 6.90107L26.4483 14.2043C25.4609 15.1602 23.8798 15.1398 22.916 14.1606C21.9521 13.1814 21.9726 11.6135 22.96 10.6576L30.5066 3.35436C35.1997 -1.18613 42.758 -1.11036 47.36 3.52339L71.1927 27.5343C75.7507 32.1244 75.877 39.7161 71.4778 44.4577L57.9863 58.9884C57.4955 59.5217 56.8226 59.7899 56.1496 59.7899Z" fill="url(#paint1_linear_110_1898)"/>
              </g>
              <defs>
              <linearGradient id="paint0_linear_110_1898" x1="7.9194e-05" y1="44.8921" x2="56.1801" y2="44.8921" gradientUnits="userSpaceOnUse">
              <stop stop-color="#CCE0F4"/>
              <stop offset="0.0641" stop-color="#C3DCF2"/>
              <stop offset="0.1706" stop-color="#A9D2EE"/>
              <stop offset="0.3066" stop-color="#80C2E7"/>
              <stop offset="0.4649" stop-color="#47ACDE"/>
              <stop offset="0.5674" stop-color="#1E9CD7"/>
              <stop offset="0.8652" stop-color="#0075BE"/>
              <stop offset="0.9944" stop-color="#005B97"/>
              </linearGradient>
              <linearGradient id="paint1_linear_110_1898" x1="22.2073" y1="29.8951" x2="74.6966" y2="29.8951" gradientUnits="userSpaceOnUse">
              <stop stop-color="#CCE0F4"/>
              <stop offset="0.0641" stop-color="#C3DCF2"/>
              <stop offset="0.1706" stop-color="#A9D2EE"/>
              <stop offset="0.3066" stop-color="#80C2E7"/>
              <stop offset="0.4649" stop-color="#47ACDE"/>
              <stop offset="0.5674" stop-color="#1E9CD7"/>
              <stop offset="0.8652" stop-color="#0075BE"/>
              <stop offset="0.9944" stop-color="#005B97"/>
              </linearGradient>
              <clipPath id="clip0_110_1898">
              <rect width="292" height="74" fill="white"/>
              </clipPath>
              </defs>         
</svg>