<svg width="292" height="75" viewBox="0 0 292 75" fill="none" xmlns="http://www.w3.org/2000/svg">
<g clip-path="url(#clip0_421_1198)">
<path d="M90.8613 50.7047H87.4348V55.8892C87.4348 56.6295 87.2585 57.1919 86.9058 57.5766C86.5532 57.9584 86.1095 58.1507 85.5717 58.1507C85.0104 58.1507 84.5549 57.9613 84.2111 57.5824C83.8672 57.2036 83.6938 56.6469 83.6938 55.9154V41.8015C83.6938 40.9855 83.8819 40.4026 84.261 40.0529C84.6401 39.7032 85.2396 39.5283 86.0624 39.5283H90.8613C92.2807 39.5283 93.371 39.6361 94.135 39.8518C94.8903 40.0587 95.5426 40.4055 96.0922 40.8893C96.6417 41.3731 97.059 41.9647 97.3441 42.6641C97.6291 43.3635 97.7731 44.1504 97.7731 45.0247C97.7731 46.8899 97.1942 48.3033 96.0363 49.265C94.8785 50.2238 93.1535 50.7047 90.8613 50.7047ZM89.9562 42.3115H87.4377V47.9069H89.9562C90.8378 47.9069 91.5754 47.8166 92.1661 47.633C92.7568 47.4494 93.2093 47.1492 93.5208 46.7354C93.8323 46.3186 93.9881 45.7737 93.9881 45.1005C93.9881 44.2932 93.7501 43.6346 93.271 43.1275C92.7303 42.5796 91.6254 42.3115 89.9562 42.3115Z" fill="white"/>
<path d="M103.245 50.2676V41.4635C103.245 40.7145 103.415 40.152 103.756 39.7761C104.097 39.4001 104.544 39.2136 105.096 39.2136C105.675 39.2136 106.137 39.4001 106.474 39.7761C106.812 40.152 106.986 40.7116 106.986 41.4635V50.4687C106.986 51.4916 107.1 52.3484 107.333 53.0362C107.565 53.7239 107.973 54.2573 108.561 54.6361C109.149 55.015 109.972 55.2044 111.029 55.2044C112.49 55.2044 113.524 54.8197 114.127 54.0503C114.729 53.281 115.035 52.1123 115.035 50.5474V41.4664C115.035 40.7087 115.202 40.1433 115.537 39.7732C115.872 39.4031 116.322 39.2165 116.886 39.2165C117.448 39.2165 117.903 39.4031 118.253 39.7732C118.602 40.1433 118.776 40.7087 118.776 41.4664V50.2705C118.776 51.7043 118.635 52.8963 118.353 53.8551C118.071 54.8139 117.542 55.6532 116.76 56.3789C116.087 56.9967 115.308 57.4455 114.418 57.7282C113.527 58.0109 112.487 58.1537 111.294 58.1537C109.875 58.1537 108.652 58.0021 107.629 57.6991C106.604 57.396 105.769 56.9238 105.123 56.2885C104.476 55.6503 104.003 54.8343 103.7 53.8405C103.398 52.838 103.245 51.649 103.245 50.2676Z" fill="white"/>
<path d="M133.023 57.836H127.38C126.566 57.836 125.985 57.6553 125.635 57.2939C125.285 56.9325 125.112 56.3555 125.112 55.5628V41.7985C125.112 40.9913 125.291 40.4113 125.647 40.0558C126.002 39.7032 126.581 39.5254 127.378 39.5254H133.361C134.242 39.5254 135.006 39.5808 135.653 39.6886C136.299 39.7964 136.878 40.0062 137.39 40.3123C137.828 40.5716 138.212 40.898 138.548 41.2915C138.883 41.6878 139.138 42.1249 139.315 42.6029C139.491 43.0808 139.579 43.5879 139.579 44.1212C139.579 45.9543 138.656 47.2949 136.808 48.143C139.235 48.9094 140.449 50.3987 140.449 52.6135C140.449 53.6365 140.184 54.5603 139.655 55.3792C139.126 56.201 138.412 56.8043 137.513 57.1977C136.952 57.4309 136.305 57.5941 135.574 57.6902C134.851 57.7864 133.998 57.836 133.023 57.836ZM128.856 42.3115V47.0443H132.282C133.214 47.0443 133.934 46.9569 134.442 46.782C134.951 46.6071 135.338 46.2749 135.606 45.7824C135.815 45.4327 135.92 45.0422 135.92 44.6079C135.92 43.6841 135.588 43.0692 134.924 42.7661C134.26 42.463 133.249 42.3115 131.888 42.3115H128.856ZM132.747 49.7051H128.856V55.0499H132.873C135.4 55.0499 136.664 54.1465 136.664 52.3396C136.664 51.4158 136.338 50.7455 135.682 50.3287C135.027 49.912 134.048 49.7051 132.747 49.7051Z" fill="white"/>
<path d="M149.676 41.4605V54.7876H157.258C157.863 54.7876 158.328 54.9334 158.651 55.2248C158.974 55.5162 159.136 55.8834 159.136 56.3235C159.136 56.7723 158.977 57.1366 158.657 57.4163C158.337 57.6961 157.872 57.836 157.258 57.836H148.227C147.413 57.836 146.829 57.6582 146.47 57.2998C146.115 56.9413 145.935 56.3643 145.935 55.5629V41.4605C145.935 40.7116 146.106 40.1491 146.447 39.7732C146.788 39.3972 147.234 39.2107 147.787 39.2107C148.348 39.2107 148.803 39.3972 149.153 39.7673C149.503 40.1404 149.676 40.7028 149.676 41.4605Z" fill="white"/>
<path d="M164.064 55.8863V41.4605C164.064 40.7116 164.237 40.1491 164.581 39.7732C164.925 39.3972 165.369 39.2107 165.915 39.2107C166.477 39.2107 166.932 39.3972 167.282 39.7673C167.632 40.1374 167.805 40.7028 167.805 41.4605V55.8863C167.805 56.6441 167.632 57.2094 167.282 57.5854C166.932 57.9613 166.477 58.1478 165.915 58.1478C165.378 58.1478 164.934 57.9584 164.587 57.5795C164.237 57.2007 164.064 56.6353 164.064 55.8863Z" fill="white"/>
<path d="M197.107 52.3396C197.107 53.4471 196.819 54.4408 196.243 55.3239C195.667 56.2069 194.826 56.8976 193.718 57.3959C192.611 57.8943 191.297 58.1449 189.778 58.1449C187.956 58.1449 186.454 57.8039 185.27 57.122C184.429 56.6295 183.747 55.9737 183.224 55.1548C182.701 54.3359 182.437 53.5374 182.437 52.7622C182.437 52.3134 182.595 51.9287 182.91 51.6081C183.224 51.2875 183.627 51.1273 184.112 51.1273C184.506 51.1273 184.841 51.2526 185.114 51.5032C185.387 51.7538 185.619 52.124 185.813 52.6136C186.048 53.1964 186.301 53.6831 186.574 54.0736C186.848 54.4641 187.233 54.7876 187.726 55.0412C188.223 55.2947 188.873 55.423 189.678 55.423C190.786 55.423 191.685 55.1665 192.378 54.6536C193.072 54.1407 193.419 53.5024 193.419 52.736C193.419 52.1269 193.231 51.6344 192.857 51.2555C192.484 50.8766 192.002 50.5881 191.409 50.387C190.815 50.1859 190.024 49.9761 189.034 49.7488C187.709 49.4399 186.598 49.0814 185.702 48.6676C184.805 48.2538 184.097 47.6942 183.574 46.9802C183.048 46.2691 182.786 45.3832 182.786 44.3253C182.786 43.3169 183.063 42.4222 183.618 41.6412C184.174 40.8602 184.973 40.2569 186.025 39.8372C187.074 39.4176 188.308 39.2078 189.728 39.2078C190.862 39.2078 191.841 39.3476 192.669 39.6274C193.495 39.9072 194.183 40.2773 194.729 40.7378C195.276 41.1982 195.673 41.6849 195.925 42.192C196.178 42.6991 196.304 43.1945 196.304 43.6783C196.304 44.1184 196.146 44.5176 195.831 44.8703C195.517 45.2229 195.123 45.4007 194.653 45.4007C194.224 45.4007 193.898 45.2957 193.677 45.083C193.457 44.8703 193.213 44.5234 192.954 44.0397C192.619 43.349 192.217 42.8098 191.747 42.4222C191.276 42.0346 190.521 41.8423 189.481 41.8423C188.514 41.8423 187.735 42.0521 187.145 42.4747C186.554 42.8944 186.257 43.4014 186.257 43.9931C186.257 44.3603 186.357 44.675 186.56 44.9431C186.763 45.2112 187.039 45.4385 187.391 45.6309C187.744 45.8232 188.1 45.9719 188.461 46.0797C188.823 46.1875 189.419 46.3449 190.251 46.5547C191.291 46.7966 192.234 47.0618 193.078 47.3532C193.921 47.6447 194.638 47.9973 195.232 48.414C195.822 48.8308 196.287 49.3583 196.616 49.9936C196.942 50.6347 197.107 51.4158 197.107 52.3396Z" fill="white"/>
<path d="M214.592 42.5854H210.51V55.8863C210.51 56.6528 210.337 57.221 209.993 57.5912C209.649 57.9613 209.202 58.1478 208.659 58.1478C208.103 58.1478 207.654 57.9613 207.304 57.5853C206.954 57.2094 206.781 56.644 206.781 55.8863V42.5854H202.699C202.061 42.5854 201.585 42.4455 201.277 42.1657C200.965 41.886 200.81 41.5188 200.81 41.0612C200.81 40.5862 200.971 40.2132 201.294 39.9363C201.618 39.6624 202.085 39.5254 202.699 39.5254H214.589C215.236 39.5254 215.718 39.6682 216.032 39.9509C216.346 40.2336 216.505 40.6037 216.505 41.0612C216.505 41.5188 216.346 41.8889 216.026 42.1657C215.709 42.4455 215.23 42.5854 214.592 42.5854Z" fill="white"/>
<path d="M221.069 50.2676V41.4635C221.069 40.7145 221.239 40.152 221.58 39.7761C221.921 39.4001 222.368 39.2136 222.92 39.2136C223.499 39.2136 223.961 39.4001 224.298 39.7761C224.636 40.152 224.81 40.7116 224.81 41.4635V50.4687C224.81 51.4916 224.924 52.3484 225.157 53.0362C225.389 53.7239 225.797 54.2573 226.385 54.6361C226.973 55.015 227.796 55.2044 228.853 55.2044C230.314 55.2044 231.348 54.8197 231.951 54.0503C232.556 53.281 232.856 52.1123 232.856 50.5474V41.4664C232.856 40.7087 233.023 40.1433 233.358 39.7732C233.693 39.4031 234.143 39.2165 234.707 39.2165C235.269 39.2165 235.724 39.4031 236.074 39.7732C236.424 40.1433 236.597 40.7087 236.597 41.4664V50.2705C236.597 51.7043 236.456 52.8963 236.174 53.8551C235.892 54.8139 235.363 55.6532 234.581 56.3789C233.908 56.9967 233.129 57.4455 232.239 57.7282C231.348 58.0109 230.308 58.1537 229.115 58.1537C227.696 58.1537 226.473 58.0021 225.45 57.6991C224.425 57.396 223.59 56.9238 222.944 56.2885C222.297 55.6532 221.824 54.8343 221.521 53.8405C221.222 52.838 221.069 51.649 221.069 50.2676Z" fill="white"/>
<path d="M245.281 39.5254H250.153C251.42 39.5254 252.507 39.642 253.415 39.8751C254.32 40.1083 255.143 40.5454 255.884 41.1865C257.805 42.8186 258.766 45.2986 258.766 48.6297C258.766 49.7284 258.669 50.7309 258.475 51.6401C258.281 52.5465 257.985 53.3654 257.582 54.094C257.179 54.8226 256.662 55.4754 256.033 56.0495C255.537 56.4896 254.996 56.8451 254.408 57.1103C253.821 57.3755 253.189 57.5649 252.513 57.6728C251.837 57.7806 251.076 57.836 250.227 57.836H245.351C244.672 57.836 244.158 57.734 243.814 57.53C243.47 57.326 243.244 57.0374 243.141 56.6673C243.038 56.2972 242.983 55.8163 242.983 55.2247V41.7985C242.983 41 243.162 40.4201 243.523 40.0616C243.891 39.7032 244.473 39.5254 245.281 39.5254ZM246.727 42.4601V54.8867H249.559C250.18 54.8867 250.667 54.8692 251.02 54.8371C251.373 54.8051 251.737 54.7206 252.116 54.5865C252.495 54.4525 252.821 54.2659 253.098 54.0241C254.35 52.9749 254.975 51.168 254.975 48.6034C254.975 46.7966 254.699 45.4443 254.15 44.5438C253.6 43.6433 252.921 43.0721 252.116 42.8273C251.311 42.5825 250.335 42.4601 249.195 42.4601H246.727Z" fill="white"/>
<path d="M264.529 55.8863V41.4605C264.529 40.7116 264.702 40.1491 265.046 39.7732C265.39 39.3972 265.834 39.2107 266.38 39.2107C266.942 39.2107 267.397 39.3972 267.747 39.7673C268.097 40.1374 268.27 40.7028 268.27 41.4605V55.8863C268.27 56.6441 268.097 57.2094 267.747 57.5854C267.397 57.9613 266.942 58.1478 266.38 58.1478C265.843 58.1478 265.399 57.9584 265.052 57.5795C264.702 57.2007 264.529 56.6353 264.529 55.8863Z" fill="white"/>
<path d="M282.896 39.2136C284.809 39.2136 286.455 39.5983 287.827 40.3677C289.199 41.1371 290.24 42.2328 290.945 43.6521C291.65 45.0714 292.003 46.7384 292.003 48.6531C292.003 50.0694 291.809 51.3546 291.424 52.5116C291.039 53.6686 290.457 54.6711 289.687 55.5221C288.917 56.373 287.965 57.02 286.84 57.4717C285.714 57.9205 284.427 58.1449 282.972 58.1449C281.529 58.1449 280.236 57.9147 279.093 57.4513C277.95 56.9909 276.998 56.3381 276.234 55.4958C275.47 54.6565 274.894 53.6423 274.503 52.4621C274.112 51.2788 273.918 50.0024 273.918 48.6268C273.918 47.2192 274.121 45.9282 274.529 44.7537C274.938 43.5793 275.526 42.5796 276.299 41.7549C277.071 40.9301 278.012 40.3007 279.12 39.8635C280.228 39.4264 281.485 39.2136 282.896 39.2136ZM288.209 48.6297C288.209 47.2892 287.992 46.1293 287.554 45.1442C287.116 44.1621 286.493 43.419 285.685 42.9148C284.874 42.4106 283.945 42.16 282.896 42.16C282.149 42.16 281.459 42.2999 280.824 42.5796C280.189 42.8594 279.646 43.2645 279.187 43.7978C278.729 44.3311 278.367 45.0102 278.103 45.8408C277.838 46.6684 277.706 47.601 277.706 48.6327C277.706 49.6731 277.838 50.6144 278.103 51.4566C278.367 52.2989 278.741 52.9954 279.223 53.5491C279.704 54.1028 280.26 54.5166 280.886 54.7906C281.512 55.0645 282.197 55.2015 282.946 55.2015C283.904 55.2015 284.783 54.9654 285.585 54.4904C286.387 54.0154 287.025 53.2839 287.498 52.293C287.971 51.3022 288.209 50.0781 288.209 48.6297Z" fill="white"/>
<path d="M39.834 74.5001C38.1502 74.5001 36.4692 73.8881 35.2173 72.6728L1.88966 40.3765C0.681855 39.2049 0.011834 37.637 0.00301788 35.9613C-0.00579819 34.2856 0.646591 32.709 1.8397 31.5257L16.4773 17.0096C17.453 16.042 19.034 16.042 20.0096 17.0096C20.9853 17.9771 20.9853 19.545 20.0096 20.5126L5.372 35.0287C5.04287 35.3551 4.99585 35.734 4.99879 35.9322C4.99879 36.1303 5.05169 36.5092 5.38376 36.8327L38.7056 69.1319C39.2757 69.6827 40.2925 69.706 40.889 69.1815L45.7584 64.8887C46.0053 64.6701 46.1493 64.3758 46.164 64.0581C46.1757 63.7405 46.0582 63.4345 45.8289 63.1984L24.9584 41.5684C22.578 39.1029 22.6045 35.1162 25.0142 32.6798L35.2379 22.3515C36.4193 21.1567 38.0032 20.4951 39.693 20.4864C39.7018 20.4864 39.7135 20.4864 39.7223 20.4864C41.4003 20.4864 42.9784 21.1333 44.1627 22.3107L54.3365 32.4C56.7991 34.8422 56.7991 38.8173 54.3365 41.2624L47.0456 48.4928C46.0699 49.4604 44.4889 49.4604 43.5133 48.4928C42.5376 47.5253 42.5376 45.9574 43.5133 44.9898L50.8041 37.7594C51.3096 37.2553 51.3096 36.4072 50.8041 35.9059L40.6304 25.8166C40.3013 25.4902 39.9075 25.4552 39.7135 25.4436C39.5137 25.4436 39.1258 25.496 38.8025 25.8254L28.5788 36.1537C28.0558 36.6811 28.0499 37.6137 28.5671 38.147L49.4377 59.777C50.6131 60.9952 51.2244 62.5893 51.1568 64.2621C51.0892 65.9349 50.3516 67.4737 49.0791 68.5957L44.2097 72.8885C42.9814 73.9638 41.4062 74.5001 39.834 74.5001Z" fill="white"/>
<path d="M56.1496 60.2899C55.5442 60.2899 54.9389 60.0742 54.4569 59.6341C53.4431 58.7074 53.3755 57.1395 54.31 56.1341L67.8015 41.6033C70.3817 38.826 70.3023 34.2039 67.6311 31.5111L43.7983 7.50015C41.1241 4.80442 36.7249 4.76071 33.9948 7.40107L26.4483 14.7043C25.4609 15.6602 23.8798 15.6398 22.916 14.6606C21.9521 13.6814 21.9726 12.1135 22.96 11.1576L30.5066 3.85436C35.1997 -0.686127 42.758 -0.610355 47.36 4.02339L71.1927 28.0343C75.7507 32.6244 75.877 40.2161 71.4778 44.9577L57.9863 59.4884C57.4955 60.0217 56.8226 60.2899 56.1496 60.2899Z" fill="white"/>
</g>
<defs>
<clipPath id="clip0_421_1198">
<rect width="292" height="74" fill="white" transform="translate(0 0.5)"/>
</clipPath>
</defs>
</svg>
